<svg width="48" height="48" viewBox="0 0 48 48" fill="none" xmlns="http://www.w3.org/2000/svg">
<rect width="48" height="48" rx="10" fill="#4F46E5"/>
<path d="M24 15L35 23.25L33.8 24.85L32 23.5V33H16V23.5L14.2 24.85L13 23.25L24 15ZM19.35 24.05C19.35 24.9333 19.825 25.875 20.775 26.875C21.725 27.875 22.8 28.9167 24 30C25.2 28.9167 26.275 27.875 27.225 26.875C28.175 25.875 28.65 24.9333 28.65 24.05C28.65 23.3167 28.4 22.7083 27.9 22.225C27.4 21.7417 26.8 21.5 26.1 21.5C25.6667 21.5 25.2708 21.5875 24.9125 21.7625C24.5542 21.9375 24.25 22.1667 24 22.45C23.75 22.1667 23.4375 21.9375 23.0625 21.7625C22.6875 21.5875 22.3 21.5 21.9 21.5C21.2 21.5 20.6 21.7417 20.1 22.225C19.6 22.7083 19.35 23.3167 19.35 24.05ZM30 31V22L24 17.5L18 22V31H30Z" fill="white"/>
</svg>
