<svg width="48" height="48" viewBox="0 0 48 48" fill="none" xmlns="http://www.w3.org/2000/svg">
<rect width="48" height="48" rx="10" fill="#4F46E5"/>
<g clip-path="url(#clip0_95_1249)">
<path d="M18 26.9999C17.17 26.9999 16.42 27.3399 15.88 27.8799C14.7 29.0599 14 33.9999 14 33.9999C14 33.9999 18.94 33.2999 20.12 32.1199C20.66 31.5799 21 30.8299 21 29.9999C21 28.3399 19.66 26.9999 18 26.9999ZM18.71 30.7099C18.43 30.9899 16.54 31.4699 16.54 31.4699C16.54 31.4699 17.01 29.5899 17.3 29.2999C17.47 29.1099 17.72 28.9999 18 28.9999C18.55 28.9999 19 29.4499 19 29.9999C19 30.2799 18.89 30.5299 18.71 30.7099ZM29.42 25.6499C35.78 19.2899 33.66 14.3399 33.66 14.3399C33.66 14.3399 28.71 12.2199 22.35 18.5799L19.86 18.0799C19.21 17.9499 18.53 18.1599 18.05 18.6299L14 22.6899L19 24.8299L23.17 28.9999L25.31 33.9999L29.36 29.9499C29.83 29.4799 30.04 28.7999 29.91 28.1399L29.42 25.6499ZM19.41 22.8299L17.5 22.0099L19.47 20.0399L20.91 20.3299C20.34 21.1599 19.83 22.0299 19.41 22.8299ZM25.99 30.4999L25.17 28.5899C25.97 28.1699 26.84 27.6599 27.66 27.0899L27.95 28.5299L25.99 30.4999ZM28 24.2399C26.68 25.5599 24.62 26.6399 23.96 26.9699L21.03 24.0399C21.35 23.3899 22.43 21.3299 23.76 19.9999C28.44 15.3199 31.99 16.0099 31.99 16.0099C31.99 16.0099 32.68 19.5599 28 24.2399ZM27 22.9999C28.1 22.9999 29 22.0999 29 20.9999C29 19.8999 28.1 18.9999 27 18.9999C25.9 18.9999 25 19.8999 25 20.9999C25 22.0999 25.9 22.9999 27 22.9999Z" fill="white"/>
</g>
<defs>
<clipPath id="clip0_95_1249">
<rect width="24" height="24" fill="white" transform="translate(12 12)"/>
</clipPath>
</defs>
</svg>
