<svg width="48" height="48" viewBox="0 0 48 48" fill="none" xmlns="http://www.w3.org/2000/svg">
<rect width="48" height="48" rx="10" fill="#4F46E5"/>
<path d="M26 19V17H34V19H26ZM26 23V21H34V23H26ZM26 27V25H34V27H26ZM20 26C19.1667 26 18.4583 25.7083 17.875 25.125C17.2917 24.5417 17 23.8333 17 23C17 22.1667 17.2917 21.4583 17.875 20.875C18.4583 20.2917 19.1667 20 20 20C20.8333 20 21.5417 20.2917 22.125 20.875C22.7083 21.4583 23 22.1667 23 23C23 23.8333 22.7083 24.5417 22.125 25.125C21.5417 25.7083 20.8333 26 20 26ZM14 32V30.1C14 29.75 14.0833 29.4167 14.25 29.1C14.4167 28.7833 14.65 28.5333 14.95 28.35C15.7 27.9 16.4958 27.5625 17.3375 27.3375C18.1792 27.1125 19.0667 27 20 27C20.9333 27 21.8208 27.1125 22.6625 27.3375C23.5042 27.5625 24.3 27.9 25.05 28.35C25.35 28.5333 25.5833 28.7833 25.75 29.1C25.9167 29.4167 26 29.75 26 30.1V32H14ZM16.15 30H23.85C23.2667 29.6667 22.65 29.4167 22 29.25C21.35 29.0833 20.6833 29 20 29C19.3167 29 18.65 29.0833 18 29.25C17.35 29.4167 16.7333 29.6667 16.15 30ZM20 24C20.2833 24 20.5208 23.9042 20.7125 23.7125C20.9042 23.5208 21 23.2833 21 23C21 22.7167 20.9042 22.4792 20.7125 22.2875C20.5208 22.0958 20.2833 22 20 22C19.7167 22 19.4792 22.0958 19.2875 22.2875C19.0958 22.4792 19 22.7167 19 23C19 23.2833 19.0958 23.5208 19.2875 23.7125C19.4792 23.9042 19.7167 24 20 24Z" fill="white"/>
</svg>
