<svg width="48" height="48" viewBox="0 0 48 48" fill="none" xmlns="http://www.w3.org/2000/svg">
<rect width="48" height="48" rx="10" fill="#E0E7FF"/>
<path d="M17.6508 22.025L19.6008 22.85C19.8341 22.3833 20.0758 21.9333 20.3258 21.5C20.5758 21.0666 20.8508 20.6333 21.1508 20.2L19.7508 19.925L17.6508 22.025ZM21.2008 24.1L24.0508 26.925C24.7508 26.6583 25.5008 26.25 26.3008 25.7C27.1008 25.15 27.8508 24.525 28.5508 23.825C29.7174 22.6583 30.6301 21.3626 31.2888 19.938C31.9468 18.5127 32.2341 17.2 32.1508 16C30.9508 15.9167 29.6341 16.204 28.2008 16.862C26.7674 17.5207 25.4674 18.4333 24.3008 19.6C23.6008 20.3 22.9758 21.05 22.4258 21.85C21.8758 22.65 21.4674 23.4 21.2008 24.1ZM25.6508 22.475C25.2674 22.0917 25.0758 21.6207 25.0758 21.062C25.0758 20.504 25.2674 20.0333 25.6508 19.65C26.0341 19.2667 26.5091 19.075 27.0758 19.075C27.6424 19.075 28.1174 19.2667 28.5008 19.65C28.8841 20.0333 29.0758 20.504 29.0758 21.062C29.0758 21.6207 28.8841 22.0917 28.5008 22.475C28.1174 22.8583 27.6424 23.05 27.0758 23.05C26.5091 23.05 26.0341 22.8583 25.6508 22.475ZM26.1258 30.5L28.2258 28.4L27.9508 27C27.5174 27.3 27.0841 27.5707 26.6508 27.812C26.2174 28.054 25.7674 28.2916 25.3008 28.525L26.1258 30.5ZM33.9508 14.175C34.2675 16.1917 34.0718 18.154 33.3638 20.062C32.6551 21.9707 31.4341 23.7916 29.7008 25.525L30.2008 28C30.2675 28.3333 30.2508 28.6583 30.1508 28.975C30.0508 29.2917 29.8841 29.5666 29.6508 29.8L25.4508 34L23.3508 29.075L19.0758 24.8L14.1508 22.7L18.3258 18.5C18.5591 18.2667 18.8384 18.1 19.1638 18C19.4884 17.9 19.8174 17.8833 20.1508 17.95L22.6258 18.45C24.3591 16.7166 26.1758 15.4917 28.0758 14.775C29.9758 14.0583 31.9341 13.8583 33.9508 14.175ZM15.9258 27.975C16.5091 27.3917 17.2214 27.0957 18.0628 27.087C18.9048 27.079 19.6174 27.3667 20.2008 27.95C20.7841 28.5333 21.0714 29.2456 21.0628 30.087C21.0548 30.929 20.7591 31.6416 20.1758 32.225C19.7591 32.6416 19.0634 33 18.0888 33.3C17.1134 33.6 15.7674 33.8666 14.0508 34.1C14.2841 32.3833 14.5508 31.0373 14.8508 30.062C15.1508 29.0873 15.5091 28.3917 15.9258 27.975ZM17.3508 29.375C17.1841 29.5417 17.0174 29.846 16.8508 30.288C16.6841 30.7293 16.5674 31.175 16.5008 31.625C16.9508 31.5583 17.3968 31.446 17.8388 31.288C18.2801 31.1293 18.5841 30.9666 18.7508 30.8C18.9508 30.6 19.0591 30.3583 19.0758 30.075C19.0924 29.7916 19.0008 29.55 18.8008 29.35C18.6008 29.15 18.3591 29.054 18.0758 29.062C17.7924 29.0707 17.5508 29.175 17.3508 29.375Z" fill="#4F46E5"/>
</svg>
